<svg xmlns="http://www.w3.org/2000/svg" viewBox="0 0 36 36" width="36" height="36">
  <rect width="36" height="36" rx="8" fill="#08090a"/>
  <g transform="translate(1.4 0.6)">
    <path d="M12.8402 20.7522C11.6426 21.8661 10.0325 22.4873 8.42707 22.1748C6.9834 21.8938 5.57803 21.4458 4.22272 20.8334C3.6423 20.571 3.06773 20.2764 2.5156 19.9565C0.264463 18.6538 0.257931 15.604 2.09691 13.7647L11.4947 4.36559C11.9746 3.88562 12.6255 3.61597 13.3043 3.61597H28.8559C29.6158 3.61597 29.9964 4.53474 29.459 5.07209C26.597 7.93414 16.9465 16.9326 12.8402 20.7522Z" fill="#D6448F"/>
    <path d="M4.53204 30.8188L21.1427 15.1719C22.3448 14.0395 23.9706 13.4045 25.5911 13.7224C27.0255 14.0037 28.422 14.4499 29.769 15.0585C30.3494 15.3209 30.924 15.6155 31.4761 15.9355C33.7272 17.2382 33.7336 20.2879 31.8945 22.127L22.496 31.5255C22.0161 32.0054 21.3652 32.275 20.6866 32.275H5.13512C4.37516 32.275 3.99461 31.3562 4.53204 30.8188Z" fill="#D6448F"/>
  </g>
</svg>
