<svg width="95" height="24" viewBox="0 0 95 24" fill="none" xmlns="http://www.w3.org/2000/svg">
<path d="M92.168 14.7239C92.168 13.7693 92.1161 12.8043 92.0124 11.8289C91.9294 10.8328 91.753 9.95087 91.4832 9.18304C91.2134 8.39445 90.8191 7.75113 90.3003 7.25307C89.8022 6.75502 89.1486 6.50599 88.3392 6.50599C87.5091 6.50599 86.8347 6.7654 86.3159 7.2842C85.8178 7.78226 85.4339 8.42558 85.1641 9.21416C84.8943 9.982 84.7076 10.8536 84.6038 11.8289C84.5208 12.8043 84.4793 13.7693 84.4793 14.7239C84.4793 15.6992 84.5208 16.6954 84.6038 17.7122C84.7076 18.7291 84.8943 19.6526 85.1641 20.4826C85.4339 21.292 85.8178 21.9664 86.3159 22.506C86.8347 23.0455 87.5091 23.3153 88.3392 23.3153C89.1486 23.3153 89.8022 23.0455 90.3003 22.506C90.8191 21.9664 91.2134 21.2816 91.4832 20.4515C91.753 19.6214 91.9294 18.698 92.0124 17.6811C92.1161 16.6642 92.168 15.6785 92.168 14.7239ZM88.3392 5.79004C89.3146 5.79004 90.2069 6.00794 91.0163 6.44374C91.8463 6.87953 92.5519 7.49172 93.133 8.28031C93.714 9.0689 94.1602 10.0131 94.4715 11.113C94.8035 12.1921 94.9696 13.3957 94.9696 14.7239C94.9696 16.052 94.8035 17.2764 94.4715 18.397C94.1602 19.5177 93.714 20.493 93.133 21.3231C92.5519 22.1532 91.8463 22.8069 91.0163 23.2842C90.2069 23.7615 89.3146 24.0002 88.3392 24.0002C87.3431 24.0002 86.4404 23.7615 85.631 23.2842C84.8217 22.8069 84.1161 22.1532 83.5143 21.3231C82.9333 20.493 82.4767 19.5177 82.1447 18.397C81.8334 17.2764 81.6777 16.052 81.6777 14.7239C81.6777 13.4165 81.8334 12.2232 82.1447 11.1441C82.4767 10.0443 82.9333 9.10003 83.5143 8.31144C84.0954 7.5021 84.7906 6.87953 85.5999 6.44374C86.43 6.00794 87.3431 5.79004 88.3392 5.79004Z" fill="white"/>
<path d="M73.7108 7.31538L73.6797 6.5683C74.1155 6.5683 74.572 6.49567 75.0493 6.3504C75.5266 6.18438 75.9728 5.94573 76.3879 5.63445C76.8029 5.30241 77.1557 4.88736 77.4462 4.38931C77.7575 3.8705 77.965 3.26869 78.0688 2.58386L78.6291 2.55273L78.5668 6.50604V7.31538C78.5461 8.37375 78.5253 9.42174 78.5046 10.4593C78.5046 11.4762 78.4942 12.4931 78.4735 13.5099C78.4735 14.506 78.4735 15.5125 78.4735 16.5294C78.4735 17.5463 78.4838 18.5839 78.5046 19.6422C78.5253 21.1986 78.8574 22.1325 79.5007 22.4438C80.144 22.7551 80.9534 22.4749 81.9287 21.6033L82.0532 22.4438C81.5344 22.9418 80.943 23.2946 80.2789 23.5021C79.6356 23.7304 79.013 23.8031 78.4112 23.7201C77.8094 23.637 77.301 23.388 76.8859 22.973C76.4709 22.5579 76.2426 21.9872 76.2011 21.2609C76.1596 20.7836 76.1285 20.161 76.1077 19.3932C76.1077 18.6254 76.1077 17.7849 76.1077 16.8718C76.1077 15.9587 76.0973 15.0145 76.0766 14.0391C76.0766 13.0638 76.0662 12.1507 76.0454 11.2998C76.0247 10.4282 75.9936 9.67076 75.9521 9.02744C75.9106 8.36337 75.8483 7.88607 75.7653 7.59554C75.5785 7.40877 75.2776 7.31538 74.8626 7.31538C74.4683 7.31538 74.0844 7.31538 73.7108 7.31538ZM78.0999 7.31538V6.5683H81.4929L81.4618 7.31538H78.0999Z" fill="white"/>
<path d="M73.1982 9.30771C73.3434 9.63975 73.3538 9.96141 73.2293 10.2727C73.1048 10.5632 72.9284 10.8123 72.7001 11.0198C72.4718 11.2273 72.2124 11.3726 71.9219 11.4556C71.6521 11.5386 71.4031 11.5282 71.1748 11.4244C71.0296 11.0924 70.8739 10.6566 70.7079 10.117C70.5626 9.55674 70.3655 9.02755 70.1165 8.5295C69.8674 8.01069 69.5561 7.5749 69.1826 7.22211C68.8298 6.86932 68.3733 6.69292 67.813 6.69292C67.0866 6.71368 66.4952 7.00421 66.0386 7.56452C65.5821 8.12483 65.2189 8.82003 64.9491 9.65012C64.6794 10.4802 64.4926 11.3518 64.3888 12.2649C64.2851 13.178 64.2332 13.9873 64.2332 14.6929C64.2332 15.5645 64.3266 16.488 64.5133 17.4634C64.7001 18.4387 64.9907 19.3311 65.3849 20.1404C65.7792 20.929 66.2773 21.5723 66.8791 22.0704C67.4809 22.5684 68.1969 22.7656 69.027 22.6618C69.5458 22.6203 70.0438 22.4646 70.5211 22.1949C70.9984 21.9043 71.4239 21.5412 71.7974 21.1054C72.1917 20.6696 72.5133 20.1923 72.7624 19.6735C73.0114 19.1547 73.1774 18.6359 73.2604 18.117L73.9141 18.2104C73.8726 18.7085 73.7274 19.2688 73.4783 19.8914C73.2293 20.5139 72.8765 21.1158 72.42 21.6968C71.9842 22.2571 71.4135 22.7552 70.7079 23.191C70.0231 23.606 69.2034 23.8447 68.2488 23.9069C67.1281 23.9899 66.1424 23.7824 65.2916 23.2844C64.4407 22.7863 63.7248 22.1015 63.1437 21.2299C62.5834 20.3583 62.158 19.3518 61.8674 18.2104C61.5769 17.0691 61.4316 15.8966 61.4316 14.6929C61.4316 13.4893 61.5769 12.3583 61.8674 11.2999C62.1787 10.2416 62.6041 9.31809 63.1437 8.5295C63.704 7.72016 64.3681 7.08722 65.1359 6.63067C65.9245 6.17412 66.8169 5.94584 67.813 5.94584C68.4563 5.92509 69.0581 5.99772 69.6184 6.16374C70.1787 6.32976 70.6871 6.56841 71.1437 6.8797C71.621 7.17023 72.0257 7.53339 72.3577 7.96919C72.7105 8.38423 72.9906 8.83041 73.1982 9.30771Z" fill="white"/>
<path d="M58.0456 10.3653C57.9833 9.9295 57.8692 9.48333 57.7031 9.02678C57.5579 8.57023 57.34 8.16556 57.0494 7.81277C56.7589 7.45999 56.4061 7.17983 55.9911 6.97231C55.5968 6.74403 55.1195 6.65065 54.5592 6.69215C53.7291 6.73366 53.0754 7.04494 52.5981 7.626C52.1208 8.20707 51.7576 8.90227 51.5086 9.71161C51.2596 10.5209 51.0935 11.3718 51.0105 12.2641C50.9483 13.1565 50.9172 13.9243 50.9172 14.5676C50.9172 15.6468 51.0105 16.6947 51.1973 17.7116C51.3841 18.7285 51.6746 19.6208 52.0689 20.3886C52.4632 21.1565 52.9509 21.7583 53.5319 22.1941C54.1338 22.6091 54.8393 22.7648 55.6487 22.661C56.2297 22.5988 56.7693 22.412 57.2673 22.1007C57.7654 21.7894 58.2012 21.4159 58.5747 20.9801C58.9483 20.5443 59.2388 20.0774 59.4463 19.5793C59.6746 19.0605 59.8303 18.5624 59.9133 18.0851L60.567 18.2097C60.5255 18.6455 60.3802 19.185 60.1312 19.8283C59.9029 20.4509 59.5605 21.0631 59.1039 21.6649C58.6681 22.246 58.0974 22.7648 57.3919 23.2213C56.707 23.6779 55.8769 23.9269 54.9016 23.9684C53.8432 24.0307 52.899 23.8439 52.0689 23.4081C51.2388 22.9516 50.5332 22.2979 49.9522 21.447C49.3919 20.5962 48.9561 19.5897 48.6448 18.4276C48.3543 17.2447 48.209 15.958 48.209 14.5676C48.209 13.281 48.3543 12.1085 48.6448 11.0501C48.9561 9.99176 49.3815 9.07866 49.921 8.31083C50.4814 7.54299 51.1454 6.95155 51.9133 6.53651C52.7018 6.10071 53.5838 5.88281 54.5592 5.88281C55.3478 5.88281 56.0948 6.00733 56.8004 6.25635C57.506 6.48463 58.1182 6.82704 58.637 7.28359C59.1766 7.74014 59.6124 8.3212 59.9444 9.02678C60.2972 9.71161 60.5255 10.5106 60.6292 11.4237C60.65 11.6104 60.5981 11.7765 60.4736 11.9217C60.3698 12.067 60.2245 12.1396 60.0378 12.1396H50.4814L50.5436 11.4237H57.0183C57.3504 11.4237 57.6098 11.3303 57.7965 11.1435C58.0041 10.936 58.0871 10.6766 58.0456 10.3653Z" fill="white"/>
<path d="M31 0.466925V0H36.7899V0.466925C36.6031 0.466925 36.3852 0.487678 36.1362 0.529184C35.8872 0.570688 35.7108 0.674448 35.607 0.840467C35.4202 1.11025 35.2853 1.64981 35.2023 2.45914C35.1401 3.24773 35.0986 4.17121 35.0778 5.22957C35.0571 6.26718 35.0571 7.36706 35.0778 8.52918C35.0986 9.69131 35.1089 10.7704 35.1089 11.7665C35.1089 12.8457 35.0986 13.9663 35.0778 15.1284C35.0571 16.2698 35.0571 17.3489 35.0778 18.3658C35.0986 19.3826 35.1401 20.2646 35.2023 21.0117C35.2853 21.7588 35.4202 22.2672 35.607 22.537C35.7108 22.703 35.8872 22.8171 36.1362 22.8794C36.3852 22.9209 36.6031 22.9416 36.7899 22.9416V23.4086H31V22.9416C31.1868 22.9416 31.4047 22.9209 31.6537 22.8794C31.9027 22.8171 32.0791 22.703 32.1829 22.537C32.3489 22.3087 32.4734 21.8106 32.5564 21.0428C32.6394 20.275 32.6913 19.3826 32.7121 18.3658C32.7328 17.3489 32.7328 16.2594 32.7121 15.0973C32.7121 13.9144 32.7121 12.7938 32.7121 11.7354C32.7121 10.7601 32.7121 9.70168 32.7121 8.56031C32.7328 7.39818 32.7328 6.28794 32.7121 5.22957C32.6913 4.17121 32.6394 3.23735 32.5564 2.42802C32.4734 1.61868 32.3489 1.08949 32.1829 0.840467C32.0791 0.674448 31.9027 0.570688 31.6537 0.529184C31.4047 0.487678 31.1868 0.466925 31 0.466925ZM41.8949 0.466925V0H47.6848V0.466925C47.498 0.466925 47.2801 0.487678 47.0311 0.529184C46.7821 0.570688 46.6057 0.674448 46.5019 0.840467C46.3152 1.11025 46.1803 1.64981 46.0973 2.45914C46.035 3.24773 45.9935 4.17121 45.9728 5.22957C45.952 6.26718 45.952 7.36706 45.9728 8.52918C45.9935 9.69131 46.0039 10.7704 46.0039 11.7665C46.0039 12.8457 45.9935 13.9663 45.9728 15.1284C45.952 16.2698 45.952 17.3489 45.9728 18.3658C45.9935 19.3826 46.035 20.2646 46.0973 21.0117C46.1803 21.7588 46.3152 22.2672 46.5019 22.537C46.6057 22.703 46.7821 22.8171 47.0311 22.8794C47.2801 22.9209 47.498 22.9416 47.6848 22.9416V23.4086H41.8949V22.9416C42.0817 22.9416 42.2996 22.9209 42.5486 22.8794C42.7977 22.8171 42.9741 22.703 43.0778 22.537C43.2438 22.3087 43.3683 21.8106 43.4514 21.0428C43.5344 20.275 43.5862 19.3826 43.607 18.3658C43.6277 17.3489 43.6277 16.2594 43.607 15.0973C43.607 13.9144 43.607 12.7938 43.607 11.7354C43.607 10.7601 43.607 9.70168 43.607 8.56031C43.6277 7.39818 43.6277 6.28794 43.607 5.22957C43.5862 4.17121 43.5344 3.23735 43.4514 2.42802C43.3683 1.61868 43.2438 1.08949 43.0778 0.840467C42.9741 0.674448 42.7977 0.570688 42.5486 0.529184C42.2996 0.487678 42.0817 0.466925 41.8949 0.466925ZM34.3307 11.4864V10.677H44.5408V11.4864H34.3307Z" fill="white"/>
<path d="M3.14799 1.8418H0.28618C0.128127 1.8418 0 1.96992 0 2.12798C0 2.28603 0.128127 2.41416 0.28618 2.41416H3.14799C3.30604 2.41416 3.43417 2.28603 3.43417 2.12798C3.43417 1.96992 3.30604 1.8418 3.14799 1.8418Z" fill="#FF8500"/>
<path d="M8.58544 0.983398H6.86835C6.23614 0.983398 5.72363 1.49591 5.72363 2.12812C5.72363 2.76033 6.23614 3.27284 6.86835 3.27284H8.58544C9.21765 3.27284 9.73016 2.76033 9.73016 2.12812C9.73016 1.49591 9.21765 0.983398 8.58544 0.983398Z" fill="#FF8500"/>
<path d="M15.4538 0.983398H12.592C11.9598 0.983398 11.4473 1.49591 11.4473 2.12812C11.4473 2.76033 11.9598 3.27284 12.592 3.27284H15.4538C16.086 3.27284 16.5985 2.76033 16.5985 2.12812C16.5985 1.49591 16.086 0.983398 15.4538 0.983398Z" fill="#FF8500"/>
<path d="M22.322 0.983398H19.4602C18.8279 0.983398 18.3154 1.49591 18.3154 2.12812C18.3154 2.76033 18.8279 3.27284 19.4602 3.27284H22.322C22.9542 3.27284 23.4667 2.76033 23.4667 2.12812C23.4667 1.49591 22.9542 0.983398 22.322 0.983398Z" fill="#FF8500"/>
<path d="M3.14799 5.27637H0.28618C0.128127 5.27637 0 5.40449 0 5.56255C0 5.7206 0.128127 5.84873 0.28618 5.84873H3.14799C3.30604 5.84873 3.43417 5.7206 3.43417 5.56255C3.43417 5.40449 3.30604 5.27637 3.14799 5.27637Z" fill="#FF8500"/>
<path d="M8.58544 4.41797H6.86835C6.23614 4.41797 5.72363 4.93048 5.72363 5.56269C5.72363 6.1949 6.23614 6.70741 6.86835 6.70741H8.58544C9.21765 6.70741 9.73016 6.1949 9.73016 5.56269C9.73016 4.93048 9.21765 4.41797 8.58544 4.41797Z" fill="#FF8500"/>
<path d="M15.4538 4.41797H12.592C11.9598 4.41797 11.4473 4.93048 11.4473 5.56269C11.4473 6.1949 11.9598 6.70741 12.592 6.70741H15.4538C16.086 6.70741 16.5985 6.1949 16.5985 5.56269C16.5985 4.93048 16.086 4.41797 15.4538 4.41797Z" fill="#FF8500"/>
<path d="M22.322 4.41797H19.4602C18.8279 4.41797 18.3154 4.93048 18.3154 5.56269C18.3154 6.1949 18.8279 6.70741 19.4602 6.70741H22.322C22.9542 6.70741 23.4667 6.1949 23.4667 5.56269C23.4667 4.93048 22.9542 4.41797 22.322 4.41797Z" fill="#FF8500"/>
<path d="M3.14799 8.70996H0.28618C0.128127 8.70996 0 8.83809 0 8.99614C0 9.15419 0.128127 9.28232 0.28618 9.28232H3.14799C3.30604 9.28232 3.43417 9.15419 3.43417 8.99614C3.43417 8.83809 3.30604 8.70996 3.14799 8.70996Z" fill="#FF8500"/>
<path d="M8.58544 7.85156H6.86835C6.23614 7.85156 5.72363 8.36407 5.72363 8.99628C5.72363 9.6285 6.23614 10.141 6.86835 10.141H8.58544C9.21765 10.141 9.73016 9.6285 9.73016 8.99628C9.73016 8.36407 9.21765 7.85156 8.58544 7.85156Z" fill="#FF8500"/>
<path d="M15.4538 7.85156H12.592C11.9598 7.85156 11.4473 8.36407 11.4473 8.99628C11.4473 9.6285 11.9598 10.141 12.592 10.141H15.4538C16.086 10.141 16.5985 9.6285 16.5985 8.99628C16.5985 8.36407 16.086 7.85156 15.4538 7.85156Z" fill="#FF8500"/>
<path d="M22.322 7.85156H19.4602C18.8279 7.85156 18.3154 8.36407 18.3154 8.99628C18.3154 9.6285 18.8279 10.141 19.4602 10.141H22.322C22.9542 10.141 23.4667 9.6285 23.4667 8.99628C23.4667 8.36407 22.9542 7.85156 22.322 7.85156Z" fill="#FF8500"/>
<path d="M22.3221 11.2861H6.86835C6.23614 11.2861 5.72363 11.7986 5.72363 12.4309C5.72363 13.0631 6.23614 13.5756 6.86835 13.5756H22.3221C22.9543 13.5756 23.4668 13.0631 23.4668 12.4309C23.4668 11.7986 22.9543 11.2861 22.3221 11.2861Z" fill="#FF8500"/>
<path d="M6.86833 12.1445H0.28618C0.128127 12.1445 0 12.2727 0 12.4307C0 12.5888 0.128127 12.7169 0.28618 12.7169H6.86833C7.02638 12.7169 7.15451 12.5888 7.15451 12.4307C7.15451 12.2727 7.02638 12.1445 6.86833 12.1445Z" fill="#FF8500"/>
<path d="M3.14799 15.5781H0.28618C0.128127 15.5781 0 15.7063 0 15.8643C0 16.0224 0.128127 16.1505 0.28618 16.1505H3.14799C3.30604 16.1505 3.43417 16.0224 3.43417 15.8643C3.43417 15.7063 3.30604 15.5781 3.14799 15.5781Z" fill="#FF8500"/>
<path d="M8.58544 14.7197H6.86835C6.23614 14.7197 5.72363 15.2322 5.72363 15.8644C5.72363 16.4967 6.23614 17.0092 6.86835 17.0092H8.58544C9.21765 17.0092 9.73016 16.4967 9.73016 15.8644C9.73016 15.2322 9.21765 14.7197 8.58544 14.7197Z" fill="#FF8500"/>
<path d="M15.4538 14.7197H12.592C11.9598 14.7197 11.4473 15.2322 11.4473 15.8644C11.4473 16.4967 11.9598 17.0092 12.592 17.0092H15.4538C16.086 17.0092 16.5985 16.4967 16.5985 15.8644C16.5985 15.2322 16.086 14.7197 15.4538 14.7197Z" fill="#FF8500"/>
<path d="M22.322 14.7197H19.4602C18.8279 14.7197 18.3154 15.2322 18.3154 15.8644C18.3154 16.4967 18.8279 17.0092 19.4602 17.0092H22.322C22.9542 17.0092 23.4667 16.4967 23.4667 15.8644C23.4667 15.2322 22.9542 14.7197 22.322 14.7197Z" fill="#FF8500"/>
<path d="M3.14799 19.0127H0.28618C0.128127 19.0127 0 19.1408 0 19.2989C0 19.4569 0.128127 19.5851 0.28618 19.5851H3.14799C3.30604 19.5851 3.43417 19.4569 3.43417 19.2989C3.43417 19.1408 3.30604 19.0127 3.14799 19.0127Z" fill="#FF8500"/>
<path d="M8.58544 18.1543H6.86835C6.23614 18.1543 5.72363 18.6668 5.72363 19.299C5.72363 19.9312 6.23614 20.4437 6.86835 20.4437H8.58544C9.21765 20.4437 9.73016 19.9312 9.73016 19.299C9.73016 18.6668 9.21765 18.1543 8.58544 18.1543Z" fill="#FF8500"/>
<path d="M15.4538 18.1543H12.592C11.9598 18.1543 11.4473 18.6668 11.4473 19.299C11.4473 19.9312 11.9598 20.4437 12.592 20.4437H15.4538C16.086 20.4437 16.5985 19.9312 16.5985 19.299C16.5985 18.6668 16.086 18.1543 15.4538 18.1543Z" fill="#FF8500"/>
<path d="M22.322 18.1543H19.4602C18.8279 18.1543 18.3154 18.6668 18.3154 19.299C18.3154 19.9312 18.8279 20.4437 19.4602 20.4437H22.322C22.9542 20.4437 23.4667 19.9312 23.4667 19.299C23.4667 18.6668 22.9542 18.1543 22.322 18.1543Z" fill="#FF8500"/>
<path d="M3.14799 22.4473H0.28618C0.128127 22.4473 0 22.5754 0 22.7334C0 22.8915 0.128127 23.0196 0.28618 23.0196H3.14799C3.30604 23.0196 3.43417 22.8915 3.43417 22.7334C3.43417 22.5754 3.30604 22.4473 3.14799 22.4473Z" fill="#FF8500"/>
<path d="M8.58544 21.5889H6.86835C6.23614 21.5889 5.72363 22.1014 5.72363 22.7336C5.72363 23.3658 6.23614 23.8783 6.86835 23.8783H8.58544C9.21765 23.8783 9.73016 23.3658 9.73016 22.7336C9.73016 22.1014 9.21765 21.5889 8.58544 21.5889Z" fill="#FF8500"/>
<path d="M15.4538 21.5889H12.592C11.9598 21.5889 11.4473 22.1014 11.4473 22.7336C11.4473 23.3658 11.9598 23.8783 12.592 23.8783H15.4538C16.086 23.8783 16.5985 23.3658 16.5985 22.7336C16.5985 22.1014 16.086 21.5889 15.4538 21.5889Z" fill="#FF8500"/>
<path d="M22.322 21.5889H19.4602C18.8279 21.5889 18.3154 22.1014 18.3154 22.7336C18.3154 23.3658 18.8279 23.8783 19.4602 23.8783H22.322C22.9542 23.8783 23.4667 23.3658 23.4667 22.7336C23.4667 22.1014 22.9542 21.5889 22.322 21.5889Z" fill="#FF8500"/>
</svg>
