<svg width="1190" height="205" viewBox="0 0 1190 205" fill="none" xmlns="http://www.w3.org/2000/svg">
    <g clip-path="url(#clip0_5364_18207)">
        <path
            d="M750.089 40.8657C795.145 40.8657 831.802 77.5294 831.802 122.597C831.802 167.664 795.145 204.329 750.089 204.329C705.038 204.329 668.38 167.664 668.38 122.597C668.38 77.5294 705.038 40.8657 750.089 40.8657ZM1006.02 0C1008.49 2.6702e-05 1010.5 2.0017 1010.5 4.47291V122.597L1010.49 123.651C1009.92 168.235 973.494 204.328 928.795 204.329C883.74 204.329 847.082 167.664 847.082 122.597C847.082 77.5294 883.74 40.8657 928.795 40.8657C943.662 40.8658 957.619 44.8608 969.643 51.8337V4.47291C969.643 2.00168 971.651 0 974.114 0H1006.02ZM1107.49 40.8657C1152.55 40.8657 1189.2 77.5294 1189.2 122.597C1189.2 167.664 1152.55 204.329 1107.49 204.329C1062.43 204.328 1025.78 167.664 1025.78 122.597C1025.78 77.5294 1062.43 40.8657 1107.49 40.8657ZM580.873 40.8697C620.63 40.4822 653.096 72.7204 653.096 112.406V196.961C653.096 199.433 651.094 201.436 648.628 201.436H616.713C614.247 201.436 612.241 199.433 612.241 196.961V112.979C612.241 96.231 599.058 82.1355 582.319 81.7395C565.072 81.3304 550.916 95.2456 550.916 112.406V196.961C550.916 197.039 550.915 197.116 550.91 197.193C550.903 197.345 550.887 197.495 550.865 197.643C550.831 197.866 550.781 198.082 550.715 198.293C550.149 200.114 548.452 201.435 546.445 201.436H514.534C513.447 201.435 512.451 201.048 511.677 200.403C511.021 199.858 510.522 199.128 510.263 198.293C510.198 198.082 510.147 197.866 510.113 197.643C510.091 197.495 510.075 197.345 510.068 197.193C510.064 197.116 510.062 197.039 510.062 196.961V112.979C510.062 96.231 496.878 82.1355 480.135 81.7395C462.893 81.3305 448.732 95.2456 448.732 112.406V196.961C448.732 199.433 446.731 201.435 444.261 201.436H412.351C409.88 201.436 407.877 199.433 407.877 196.961V113.315C407.877 73.9299 439.32 41.2486 478.694 40.8697C499.042 40.6715 517.479 49.0205 530.632 62.5392C543.419 49.3554 561.151 41.0595 580.873 40.8697ZM750.089 81.7313C727.561 81.7313 709.234 100.063 709.234 122.597C709.235 145.131 727.562 163.463 750.089 163.463C772.617 163.463 790.943 145.131 790.943 122.597C790.943 100.063 772.617 81.7313 750.089 81.7313ZM928.795 81.7313C906.268 81.7313 887.938 100.063 887.938 122.597C887.938 145.131 906.268 163.463 928.795 163.463C951.141 163.463 969.362 145.416 969.643 123.124V122.597V121.987C969.313 99.7333 951.116 81.7315 928.795 81.7313ZM1107.49 81.7313C1084.96 81.7313 1066.64 100.063 1066.64 122.597C1066.64 145.131 1084.96 163.463 1107.49 163.463C1130.02 163.463 1148.34 145.131 1148.34 122.597C1148.34 100.063 1130.02 81.7313 1107.49 81.7313Z"
            fill="#1B2021" />
        <path
            d="M108.945 149.841C108.945 179.93 84.5586 204.328 54.4728 204.328C24.3871 204.328 0 179.93 0 149.841C0 119.747 24.3871 95.3535 54.4728 95.3535C84.5586 95.3535 108.945 119.747 108.945 149.841ZM193.952 200.858L192.484 201.444C168.441 211.041 141.17 199.326 131.577 175.276L103.819 105.699C94.2257 81.6495 105.937 54.3756 129.979 44.7791L131.447 44.1893C155.494 34.5929 182.761 46.3075 192.355 70.3611L220.112 139.934C229.71 163.984 217.995 191.262 193.952 200.858ZM312.948 201.435H244.069C236.765 201.435 230.847 195.515 230.847 188.209V57.4238C230.847 50.1219 236.765 44.1979 244.069 44.1979H312.948C320.251 44.1979 326.17 50.1219 326.17 57.4238V188.209C326.17 195.515 320.251 201.435 312.948 201.435Z"
            fill="#F48656" />
    </g>
    <defs>
        <clipPath id="clip0_5364_18207">
            <rect width="1190" height="205" fill="white" />
        </clipPath>
    </defs>
</svg>