<svg width="128" height="128" viewBox="0 0 29 28" fill="none" xmlns="http://www.w3.org/2000/svg">
  <circle cx="14.3102" cy="14" r="14" fill="#FFFFFF" />
  <path
    d="M22.9761 5.29791C22.9422 5.26475 22.8902 5.26043 22.8529 5.29003C22.3451 5.69374 18.8711 8.35816 15.9361 8.10206C14.1824 7.94901 12.851 7.16186 12.5493 6.97003C12.5116 6.9461 12.4616 6.95062 12.4299 6.98163L12.3829 7.02756C12.3543 7.05563 12.3475 7.09841 12.3661 7.13366C12.6407 7.65328 13.1671 8.81082 13.3853 10.3053C13.6854 12.3609 12.8599 13.4624 10.7587 16.2523C8.50314 19.2469 5.85758 21.9186 5.41847 22.3567C5.38294 22.3922 5.38459 22.4477 5.42048 22.4829L5.50523 22.5663L5.59019 22.6494C5.62618 22.6845 5.68309 22.6859 5.71943 22.6511C6.16726 22.2215 8.89814 19.6336 11.9592 17.4269C14.8109 15.3712 15.9369 14.5634 18.0382 14.8571C19.5657 15.0706 20.7488 15.5855 21.2799 15.8541C21.3159 15.8724 21.3597 15.8658 21.3883 15.8377L21.4351 15.792C21.4668 15.7609 21.4716 15.712 21.4472 15.6752C21.2512 15.3801 20.4467 14.0774 20.2903 12.3616C20.0285 9.49019 22.7516 6.09123 23.1642 5.59453C23.1944 5.55812 23.1902 5.50742 23.1563 5.47422L22.9761 5.29791Z"
    fill="#060405"
  />
</svg>
